<svg version="1.1" id="Layer_1" xmlns="http://www.w3.org/2000/svg" x="0" y="0" viewBox="0 0 38.7 38.7" xml:space="preserve"><g fill="#FFF"><path d="M33 5.7C29.4 2 24.5 0 19.3 0S9.3 2 5.7 5.7C2 9.3 0 14.2 0 19.3s2 10 5.7 13.7c3.7 3.7 8.5 5.7 13.7 5.7s10-2 13.7-5.7c3.7-3.7 5.7-8.5 5.7-13.7S36.7 9.3 33 5.7m-13.7 31C9.8 36.7 2 28.9 2 19.3S9.8 2 19.3 2s17.3 7.8 17.3 17.3-7.7 17.4-17.3 17.4"/><path d="M19.3 28.5c-.6 0-1-.5-1-1v-4.1c0-.6.5-1 1-1 3.9 0 7.1-3.2 7.1-7.1 0-3.9-3.2-7.1-7.1-7.1s-7.1 3.2-7.1 7.1c0 .6-.5 1-1 1-.6 0-1-.5-1-1 0-5.1 4.1-9.2 9.2-9.2s9.2 4.1 9.2 9.2c0 4.7-3.6 8.6-8.1 9.1v3.1c-.1.6-.6 1-1.2 1M19.3 34.6c-.6 0-1-.5-1-1v-2c0-.6.5-1 1-1 .6 0 1 .5 1 1v2c.1.6-.4 1-1 1"/></g></svg>