<svg version="1.1" id="Layer_1" xmlns="http://www.w3.org/2000/svg" x="0" y="0" viewBox="0 0 33.4 33.7" xml:space="preserve"><g fill="#FFF"><path d="M16.2 28.9H5.1c-.9 0-1.7-.8-1.7-1.7v-8.5c0-.9.8-1.7 1.7-1.7h11.1c.9 0 1.7.8 1.7 1.7v8.5c0 .9-.8 1.7-1.7 1.7m-11-1.8H16v-8.3H5.2v8.3zM28 33.3c-.5 0-.9-.4-.9-.9V18.8h-5.5v13.6c0 .5-.4.9-.9.9s-.9-.4-.9-.9V18.7c0-.9.8-1.7 1.7-1.7h5.7c.9 0 1.7.8 1.7 1.7v13.7c0 .5-.4.9-.9.9M4.6 15h-2C1.2 15 0 13.9 0 12.6V5h1.8v7.6c0 .4.3.7.7.7h2c.4 0 .7-.3.7-.7V5H7v7.6C7 13.9 5.9 15 4.6 15"/><path d="M9.8 15h-2c-1.4 0-2.5-1.1-2.5-2.5V5h1.8v7.6c0 .4.3.7.7.7h2c.4 0 .7-.3.7-.7V5h1.8v7.6c0 1.3-1.1 2.4-2.5 2.4"/><path d="M15.1 15h-2c-1.4 0-2.5-1.1-2.5-2.5V5h1.8v7.6c0 .4.3.7.7.7h2c.4 0 .7-.3.7-.7V5h1.8v7.6c-.1 1.3-1.2 2.4-2.5 2.4"/><path d="M20.3 15h-2c-1.4 0-2.5-1.1-2.5-2.5V5h1.8v7.6c0 .4.3.7.7.7h2c.4 0 .7-.3.7-.7V5h1.8v7.6c0 1.3-1.1 2.4-2.5 2.4"/><path d="M25.6 15h-2c-1.4 0-2.5-1.1-2.5-2.5V5h1.8v7.6c0 .4.3.7.7.7h2c.4 0 .7-.3.7-.7V5h1.8v7.6c0 1.3-1.1 2.4-2.5 2.4"/><path d="M30.9 15h-2c-1.4 0-2.5-1.1-2.5-2.5V5h1.8v7.6c0 .4.3.7.7.7h2c.4 0 .7-.3.7-.7V5h1.8v7.6c-.1 1.3-1.2 2.4-2.5 2.4"/><path d="M30.9 33.7H2.5c-1.4 0-2.5-1.1-2.5-2.5V2.5C0 1.1 1.1 0 2.5 0H31c1.4 0 2.5 1.1 2.5 2.5v28.8c-.1 1.3-1.2 2.4-2.6 2.4M2.5 1.8c-.4 0-.7.3-.7.7v28.8c0 .4.3.6.7.6H31c.4 0 .7-.3.7-.6V2.5c0-.4-.3-.7-.7-.7H2.5z"/><path d="M.8 4.2h31.7V6H.8z"/></g></svg>