<?xml version="1.0" encoding="utf-8"?>
<!-- Generator: Adobe Illustrator 18.0.0, SVG Export Plug-In . SVG Version: 6.00 Build 0)  -->
<!DOCTYPE svg PUBLIC "-//W3C//DTD SVG 1.1//EN" "http://www.w3.org/Graphics/SVG/1.1/DTD/svg11.dtd">
<svg version="1.1" id="Layer_1" xmlns="http://www.w3.org/2000/svg" xmlns:xlink="http://www.w3.org/1999/xlink" x="0px" y="0px"
	 viewBox="0 0 38.7 38.7" enable-background="new 0 0 38.7 38.7" xml:space="preserve">
<g>
	<path fill="#FFFFFF" d="M33,5.7C29.4,2,24.5,0,19.3,0S9.3,2,5.7,5.7C2,9.3,0,14.2,0,19.3s2,10,5.7,13.7c3.7,3.7,8.5,5.7,13.7,5.7
		s10-2,13.7-5.7c3.7-3.7,5.7-8.5,5.7-13.7S36.7,9.3,33,5.7 M19.3,36.7C9.8,36.7,2,28.9,2,19.3S9.8,2,19.3,2s17.3,7.8,17.3,17.3
		S28.9,36.7,19.3,36.7"/>
	<path fill="#FFFFFF" d="M19.3,28.5c-0.6,0-1-0.5-1-1v-4.1c0-0.6,0.5-1,1-1c3.9,0,7.1-3.2,7.1-7.1c0-3.9-3.2-7.1-7.1-7.1
		s-7.1,3.2-7.1,7.1c0,0.6-0.5,1-1,1c-0.6,0-1-0.5-1-1c0-5.1,4.1-9.2,9.2-9.2s9.2,4.1,9.2,9.2c0,4.7-3.6,8.6-8.1,9.1v3.1
		C20.4,28.1,19.9,28.5,19.3,28.5"/>
	<path fill="#FFFFFF" d="M19.3,34.6L19.3,34.6c-0.6,0-1-0.5-1-1v-2c0-0.6,0.5-1,1-1c0.6,0,1,0.5,1,1v2
		C20.4,34.2,19.9,34.6,19.3,34.6"/>
</g>
</svg>
