<?xml version="1.0" encoding="utf-8"?>
<!-- Generator: Adobe Illustrator 18.0.0, SVG Export Plug-In . SVG Version: 6.00 Build 0)  -->
<!DOCTYPE svg PUBLIC "-//W3C//DTD SVG 1.1//EN" "http://www.w3.org/Graphics/SVG/1.1/DTD/svg11.dtd">
<svg version="1.1" id="Layer_1" xmlns="http://www.w3.org/2000/svg" xmlns:xlink="http://www.w3.org/1999/xlink" x="0px" y="0px"
	 viewBox="0 0 33.4 33.7" enable-background="new 0 0 33.4 33.7" xml:space="preserve">
<g>
	<path fill="#FFFFFF" d="M16.2,28.9H5.1c-0.9,0-1.7-0.8-1.7-1.7v-8.5c0-0.9,0.8-1.7,1.7-1.7h11.1c0.9,0,1.7,0.8,1.7,1.7v8.5
		C17.9,28.1,17.1,28.9,16.2,28.9 M5.2,27.1h10.8v-8.3H5.2V27.1z"/>
	<path fill="#FFFFFF" d="M28,33.3c-0.5,0-0.9-0.4-0.9-0.9V18.8h-5.5v13.6c0,0.5-0.4,0.9-0.9,0.9c-0.5,0-0.9-0.4-0.9-0.9V18.7
		c0-0.9,0.8-1.7,1.7-1.7h5.7c0.9,0,1.7,0.8,1.7,1.7v13.7C28.9,32.9,28.5,33.3,28,33.3"/>
	<path fill="#FFFFFF" d="M4.6,15h-2C1.2,15,0,13.9,0,12.6V5h1.8v7.6c0,0.4,0.3,0.7,0.7,0.7h2c0.4,0,0.7-0.3,0.7-0.7V5H7v7.6
		C7,13.9,5.9,15,4.6,15"/>
	<path fill="#FFFFFF" d="M9.8,15h-2c-1.4,0-2.5-1.1-2.5-2.5V5h1.8v7.6c0,0.4,0.3,0.7,0.7,0.7h2c0.4,0,0.7-0.3,0.7-0.7V5h1.8v7.6
		C12.3,13.9,11.2,15,9.8,15"/>
	<path fill="#FFFFFF" d="M15.1,15h-2c-1.4,0-2.5-1.1-2.5-2.5V5h1.8v7.6c0,0.4,0.3,0.7,0.7,0.7h2c0.4,0,0.7-0.3,0.7-0.7V5h1.8v7.6
		C17.5,13.9,16.4,15,15.1,15"/>
	<path fill="#FFFFFF" d="M20.3,15h-2c-1.4,0-2.5-1.1-2.5-2.5V5h1.8v7.6c0,0.4,0.3,0.7,0.7,0.7h2c0.4,0,0.7-0.3,0.7-0.7V5h1.8v7.6
		C22.8,13.9,21.7,15,20.3,15"/>
	<path fill="#FFFFFF" d="M25.6,15h-2c-1.4,0-2.5-1.1-2.5-2.5V5h1.8v7.6c0,0.4,0.3,0.7,0.7,0.7h2c0.4,0,0.7-0.3,0.7-0.7V5h1.8v7.6
		C28.1,13.9,27,15,25.6,15"/>
	<path fill="#FFFFFF" d="M30.9,15h-2c-1.4,0-2.5-1.1-2.5-2.5V5h1.8v7.6c0,0.4,0.3,0.7,0.7,0.7h2c0.4,0,0.7-0.3,0.7-0.7V5h1.8v7.6
		C33.3,13.9,32.2,15,30.9,15"/>
	<path fill="#FFFFFF" d="M30.9,33.7H2.5c-1.4,0-2.5-1.1-2.5-2.5V2.5C0,1.1,1.1,0,2.5,0h28.5c1.4,0,2.5,1.1,2.5,2.5v28.8
		C33.4,32.6,32.3,33.7,30.9,33.7 M2.5,1.8c-0.4,0-0.7,0.3-0.7,0.7v28.8c0,0.4,0.3,0.6,0.7,0.6h28.5c0.4,0,0.7-0.3,0.7-0.6V2.5
		c0-0.4-0.3-0.7-0.7-0.7H2.5z"/>
	<rect x="0.8" y="4.2" fill="#FFFFFF" width="31.7" height="1.8"/>
</g>
</svg>
